<?xml version="1.0" encoding="UTF-8"?>
<!DOCTYPE svg PUBLIC "-//W3C//DTD SVG 1.1//EN" "http://www.w3.org/Graphics/SVG/1.1/DTD/svg11.dtd">
<svg xmlns="http://www.w3.org/2000/svg" version="1.1" width="300px" height="300px" style="shape-rendering:geometricPrecision; text-rendering:geometricPrecision; image-rendering:optimizeQuality; fill-rule:evenodd; clip-rule:evenodd" xmlns:xlink="http://www.w3.org/1999/xlink">
<g><path style="opacity:1" fill="#fefefe" d="M -0.5,-0.5 C 99.5,-0.5 199.5,-0.5 299.5,-0.5C 299.5,99.5 299.5,199.5 299.5,299.5C 199.5,299.5 99.5,299.5 -0.5,299.5C -0.5,199.5 -0.5,99.5 -0.5,-0.5 Z"/></g>
<g><path style="opacity:1" fill="#8b9cc8" d="M 128.5,141.5 C 132.634,140.515 136.968,140.182 141.5,140.5C 141.768,142.099 141.434,143.432 140.5,144.5C 140.5,143.5 140.5,142.5 140.5,141.5C 136.5,141.5 132.5,141.5 128.5,141.5 Z"/></g>
<g><path style="opacity:1" fill="#8f9dcb" d="M 254.5,141.5 C 258.634,140.515 262.968,140.182 267.5,140.5C 267.768,142.099 267.434,143.432 266.5,144.5C 266.5,143.5 266.5,142.5 266.5,141.5C 262.5,141.5 258.5,141.5 254.5,141.5 Z"/></g>
<g><path style="opacity:1" fill="#405ba5" d="M 74.5,141.5 C 79.183,143.21 80.683,146.543 79,151.5C 76.4536,155.05 72.9536,156.383 68.5,155.5C 68.5,157.5 68.5,159.5 68.5,161.5C 66.2188,161.923 64.5521,161.256 63.5,159.5C 64.4896,153.69 64.8229,147.69 64.5,141.5C 67.8333,141.5 71.1667,141.5 74.5,141.5 Z"/></g>
<g><path style="opacity:1" fill="#93a2c9" d="M 231.5,141.5 C 230.51,147.645 230.177,153.978 230.5,160.5C 231.833,160.5 233.167,160.5 234.5,160.5C 233.081,161.451 231.415,161.784 229.5,161.5C 229.17,154.468 229.503,147.468 230.5,140.5C 231.107,140.624 231.44,140.957 231.5,141.5 Z"/></g>
<g><path style="opacity:1" fill="#3c59a3" d="M 278.5,160.5 C 277.432,161.434 276.099,161.768 274.5,161.5C 274.5,155.833 274.5,150.167 274.5,144.5C 272.833,144.5 271.167,144.5 269.5,144.5C 269.5,143.5 269.5,142.5 269.5,141.5C 274.167,141.5 278.833,141.5 283.5,141.5C 283.5,142.5 283.5,143.5 283.5,144.5C 281.833,144.5 280.167,144.5 278.5,144.5C 278.5,149.833 278.5,155.167 278.5,160.5 Z"/></g>
<g><path style="opacity:1" fill="#3f5aa4" d="M 111.5,140.5 C 117.179,139.827 121.512,141.827 124.5,146.5C 123.833,146.833 123.167,147.167 122.5,147.5C 112.636,141.879 108.803,144.545 111,155.5C 111.956,156.894 113.289,157.561 115,157.5C 118.333,156.275 121.499,154.942 124.5,153.5C 123.629,158.966 120.295,161.633 114.5,161.5C 106.541,159.595 103.708,154.595 106,146.5C 107.36,143.977 109.193,141.977 111.5,140.5 Z"/></g>
<g><path style="opacity:1" fill="#9dabd0" d="M 159.5,141.5 C 159.56,140.957 159.893,140.624 160.5,140.5C 161.497,147.468 161.83,154.468 161.5,161.5C 159.585,161.784 157.919,161.451 156.5,160.5C 157.833,160.5 159.167,160.5 160.5,160.5C 160.823,153.978 160.49,147.645 159.5,141.5 Z"/></g>
<g><path style="opacity:1" fill="#3957a3" d="M 254.5,141.5 C 258.5,141.5 262.5,141.5 266.5,141.5C 266.5,142.5 266.5,143.5 266.5,144.5C 263.833,144.5 261.167,144.5 258.5,144.5C 258.5,145.833 258.5,147.167 258.5,148.5C 261.167,148.5 263.833,148.5 266.5,148.5C 266.5,149.833 266.5,151.167 266.5,152.5C 264.167,152.5 261.833,152.5 259.5,152.5C 258.549,153.919 258.216,155.585 258.5,157.5C 261.167,157.5 263.833,157.5 266.5,157.5C 266.5,158.5 266.5,159.5 266.5,160.5C 262.5,160.5 258.5,160.5 254.5,160.5C 254.5,154.167 254.5,147.833 254.5,141.5 Z"/></g>
<g><path style="opacity:1" fill="#879ac6" d="M 143.5,141.5 C 144.919,140.549 146.585,140.216 148.5,140.5C 148.5,144.167 148.5,147.833 148.5,151.5C 147.496,148.955 147.163,145.621 147.5,141.5C 146.167,141.5 144.833,141.5 143.5,141.5 Z"/></g>
<g><path style="opacity:1" fill="#3e5aa3" d="M 143.5,141.5 C 144.833,141.5 146.167,141.5 147.5,141.5C 147.163,145.621 147.496,148.955 148.5,151.5C 152.167,148.167 155.833,144.833 159.5,141.5C 160.49,147.645 160.823,153.978 160.5,160.5C 159.167,160.5 157.833,160.5 156.5,160.5C 156.665,157.15 156.498,153.817 156,150.5C 152.318,154.349 148.485,158.016 144.5,161.5C 143.503,154.866 143.17,148.2 143.5,141.5 Z"/></g>
<g><path style="opacity:1" fill="#3e59a4" d="M 212.5,140.5 C 223.695,140.515 227.862,145.849 225,156.5C 220.215,161.936 214.715,162.77 208.5,159C 203.608,151.369 204.942,145.202 212.5,140.5 Z"/></g>
<g><path style="opacity:1" fill="#768ac0" d="M 74.5,141.5 C 71.1667,141.5 67.8333,141.5 64.5,141.5C 64.8229,147.69 64.4896,153.69 63.5,159.5C 63.5,153.167 63.5,146.833 63.5,140.5C 67.3714,140.185 71.0381,140.518 74.5,141.5 Z"/></g>
<g><path style="opacity:1" fill="#f5f7f9" d="M 68.5,144.5 C 73.983,143.807 75.983,145.974 74.5,151C 72.5273,151.495 70.5273,151.662 68.5,151.5C 68.5,149.167 68.5,146.833 68.5,144.5 Z"/></g>
<g><path style="opacity:1" fill="#3f5aa4" d="M 168.5,141.5 C 172.833,141.5 177.167,141.5 181.5,141.5C 181.179,147.026 181.512,152.36 182.5,157.5C 183.461,159.265 183.795,161.265 183.5,163.5C 180.248,162.623 176.915,161.957 173.5,161.5C 170.085,161.957 166.752,162.623 163.5,163.5C 163.201,161.396 163.534,159.396 164.5,157.5C 165.799,156.91 166.632,155.91 167,154.5C 167.292,150.118 167.792,145.785 168.5,141.5 Z"/></g>
<g><path style="opacity:1" fill="#aab4d7" d="M 168.5,141.5 C 172.97,140.514 177.637,140.181 182.5,140.5C 182.5,146.167 182.5,151.833 182.5,157.5C 181.512,152.36 181.179,147.026 181.5,141.5C 177.167,141.5 172.833,141.5 168.5,141.5 Z"/></g>
<g><path style="opacity:1" fill="#f0f4f6" d="M 213.5,144.5 C 218.378,143.768 221.378,145.768 222.5,150.5C 220.78,156.865 217.113,158.532 211.5,155.5C 208.564,151.182 209.23,147.515 213.5,144.5 Z"/></g>
<g><path style="opacity:1" fill="#3551a0" d="M 31.5,131.5 C 46.5298,130.532 54.1964,137.532 54.5,152.5C 52.3254,152.318 50.3254,151.651 48.5,150.5C 44.4293,153.059 40.4293,153.059 36.5,150.5C 32.3228,153.104 28.1562,153.104 24,150.5C 21.9534,151.609 19.7867,152.276 17.5,152.5C 17.4504,142.238 22.1171,135.238 31.5,131.5 Z"/></g>
<g><path style="opacity:1" fill="#3d59a3" d="M 231.5,141.5 C 234.78,144.043 237.613,147.043 240,150.5C 242.312,147.021 245.146,144.021 248.5,141.5C 249.496,147.798 249.83,154.132 249.5,160.5C 248.167,160.5 246.833,160.5 245.5,160.5C 245.838,156.704 245.505,153.704 244.5,151.5C 243.068,153.327 241.401,154.994 239.5,156.5C 238.185,154.684 236.685,153.017 235,151.5C 234.502,154.482 234.335,157.482 234.5,160.5C 233.167,160.5 231.833,160.5 230.5,160.5C 230.177,153.978 230.51,147.645 231.5,141.5 Z"/></g>
<g><path style="opacity:1" fill="#405ba5" d="M 88.5,140.5 C 101.15,140.792 104.983,146.792 100,158.5C 92.561,163.44 86.561,162.106 82,154.5C 80.6694,148.163 82.8361,143.497 88.5,140.5 Z"/></g>
<g><path style="opacity:1" fill="#f3f6f8" d="M 89.5,144.5 C 97.8448,144.691 100.178,148.524 96.5,156C 88.3936,158.898 85.227,156.065 87,147.5C 88.045,146.627 88.8783,145.627 89.5,144.5 Z"/></g>
<g><path style="opacity:1" fill="#3754a1" d="M 128.5,141.5 C 132.5,141.5 136.5,141.5 140.5,141.5C 140.5,142.5 140.5,143.5 140.5,144.5C 137.833,144.5 135.167,144.5 132.5,144.5C 132.5,149.833 132.5,155.167 132.5,160.5C 131.167,160.5 129.833,160.5 128.5,160.5C 128.5,154.167 128.5,147.833 128.5,141.5 Z"/></g>
<g><path style="opacity:1" fill="#b8c1df" d="M 140.5,144.5 C 138.393,145.468 136.059,145.802 133.5,145.5C 133.5,150.833 133.5,156.167 133.5,161.5C 131.585,161.784 129.919,161.451 128.5,160.5C 129.833,160.5 131.167,160.5 132.5,160.5C 132.5,155.167 132.5,149.833 132.5,144.5C 135.167,144.5 137.833,144.5 140.5,144.5 Z"/></g>
<g><path style="opacity:1" fill="#f2f5f9" d="M 171.5,144.5 C 173.5,144.5 175.5,144.5 177.5,144.5C 177.5,148.833 177.5,153.167 177.5,157.5C 175.076,157.808 172.743,157.474 170.5,156.5C 171.433,152.571 171.766,148.571 171.5,144.5 Z"/></g>
<g><path style="opacity:1" fill="#405ba4" d="M 187.5,140.5 C 191.936,140.21 196.27,140.71 200.5,142C 204.769,146.709 204.436,151.042 199.5,155C 196.854,155.497 194.187,155.664 191.5,155.5C 191.5,157.167 191.5,158.833 191.5,160.5C 190.167,160.5 188.833,160.5 187.5,160.5C 187.5,153.833 187.5,147.167 187.5,140.5 Z"/></g>
<g><path style="opacity:1" fill="#ebeff4" d="M 191.5,144.5 C 193.527,144.338 195.527,144.505 197.5,145C 199.62,146.523 199.953,148.356 198.5,150.5C 196.257,151.474 193.924,151.808 191.5,151.5C 191.5,149.167 191.5,146.833 191.5,144.5 Z"/></g>
<g><path style="opacity:1" fill="#aab7d7" d="M 278.5,160.5 C 278.5,155.167 278.5,149.833 278.5,144.5C 280.167,144.5 281.833,144.5 283.5,144.5C 283.5,143.5 283.5,142.5 283.5,141.5C 278.833,141.5 274.167,141.5 269.5,141.5C 269.5,142.5 269.5,143.5 269.5,144.5C 268.566,143.432 268.232,142.099 268.5,140.5C 273.833,140.5 279.167,140.5 284.5,140.5C 284.5,142.167 284.5,143.833 284.5,145.5C 282.833,145.5 281.167,145.5 279.5,145.5C 279.821,150.695 279.487,155.695 278.5,160.5 Z"/></g>
<g><path style="opacity:1" fill="#aabbd8" d="M 249.5,160.5 C 248.081,161.451 246.415,161.784 244.5,161.5C 244.5,158.167 244.5,154.833 244.5,151.5C 245.505,153.704 245.838,156.704 245.5,160.5C 246.833,160.5 248.167,160.5 249.5,160.5 Z"/></g>
<g><path style="opacity:1" fill="#99a7cf" d="M 259.5,152.5 C 259.5,153.833 259.5,155.167 259.5,156.5C 262.167,156.5 264.833,156.5 267.5,156.5C 267.5,158.167 267.5,159.833 267.5,161.5C 262.968,161.818 258.634,161.485 254.5,160.5C 258.5,160.5 262.5,160.5 266.5,160.5C 266.5,159.5 266.5,158.5 266.5,157.5C 263.833,157.5 261.167,157.5 258.5,157.5C 258.216,155.585 258.549,153.919 259.5,152.5 Z"/></g>
<g><path style="opacity:1" fill="#101010" d="M 21.5,159.5 C 31.3436,159.644 41.0102,159.977 50.5,160.5C 42.844,168.397 34.1774,169.563 24.5,164C 22.8588,162.871 21.8588,161.371 21.5,159.5 Z"/></g>
</svg>
