<?xml version="1.0" standalone="no"?>
<!DOCTYPE svg PUBLIC "-//W3C//DTD SVG 20010904//EN"
 "http://www.w3.org/TR/2001/REC-SVG-20010904/DTD/svg10.dtd">
<svg version="1.0" xmlns="http://www.w3.org/2000/svg"
 width="500.000000pt" height="356.000000pt" viewBox="0 0 500.000000 356.000000"
 preserveAspectRatio="xMidYMid meet">
<metadata>
Created by potrace 1.16, written by Peter Selinger 2001-2019
</metadata>
<g transform="translate(0.000000,356.000000) scale(0.100000,-0.100000)"
fill="#000000" stroke="none">
<path d="M2295 3549 c-605 -64 -1128 -382 -1441 -877 l-62 -97 -88 -7 c-116
-9 -200 -31 -300 -79 -192 -93 -316 -247 -376 -465 -31 -113 -31 -344 0 -459
86 -318 356 -545 680 -573 l84 -7 60 -95 c75 -120 124 -183 218 -283 411 -439
1049 -666 1660 -592 602 72 1107 384 1416 873 l62 97 83 6 c324 25 575 210
664 490 53 169 57 378 11 561 -80 315 -317 503 -665 527 l-93 6 -62 97 c-387
612 -1110 955 -1851 877z m485 -105 c437 -63 843 -279 1120 -597 80 -91 190
-246 190 -266 0 -7 -31 -11 -82 -11 l-83 1 -45 66 c-54 81 -199 235 -295 313
-209 171 -490 299 -772 352 -169 31 -457 31 -625 0 -235 -44 -459 -135 -663
-270 -118 -77 -336 -289 -405 -394 l-45 -67 -82 -1 c-50 0 -83 4 -83 10 0 14
43 82 98 155 207 273 466 469 792 598 305 121 643 159 980 111z m-15 -231
c317 -48 636 -206 863 -427 74 -72 172 -188 172 -205 0 -8 -334 -11 -1300 -11
-923 0 -1300 3 -1300 11 0 6 27 43 59 82 226 274 542 461 908 538 192 40 389
44 598 12z m1546 -744 c304 -31 493 -186 565 -464 26 -97 26 -352 1 -445 -73
-273 -282 -440 -589 -471 -67 -6 -709 -9 -1853 -7 -1947 4 -1791 -2 -1948 72
-185 85 -309 235 -364 436 -14 50 -18 100 -17 215 0 135 3 158 28 232 32 98
107 215 171 268 112 91 250 149 395 164 118 13 3489 13 3611 0z m-3185 -1556
c85 -117 282 -307 399 -385 699 -468 1637 -373 2210 223 55 58 120 135 145
171 l45 67 83 1 c49 0 82 -4 82 -10 0 -33 -156 -237 -265 -346 -278 -279 -639
-458 -1050 -519 -145 -22 -404 -22 -550 0 -444 65 -851 282 -1129 600 -72 83
-186 244 -186 264 0 7 31 11 80 11 l79 0 57 -77z m2674 66 c0 -17 -97 -133
-172 -206 -96 -94 -238 -195 -368 -262 -691 -357 -1543 -185 -2023 410 -20 25
-37 51 -37 58 0 8 329 11 1300 11 966 0 1300 -3 1300 -11z"/>
<path d="M710 2313 c-107 -18 -232 -85 -306 -164 -92 -98 -114 -171 -114 -374
0 -153 12 -216 57 -292 34 -59 131 -145 203 -181 132 -66 19 -63 1985 -60
l1780 3 59 23 c164 62 280 175 320 311 18 63 22 308 6 379 -17 72 -51 132
-111 197 -60 63 -117 100 -216 138 l-58 22 -1790 1 c-984 1 -1801 0 -1815 -3z
m2644 -246 c190 -87 238 -345 94 -502 -68 -75 -128 -99 -243 -100 -79 0 -97 3
-147 28 -72 35 -141 111 -164 179 -24 73 -16 186 19 254 41 81 116 139 212
165 55 15 170 3 229 -24z m-2147 -2 c72 -21 103 -60 103 -129 0 -72 -27 -110
-103 -144 l-38 -17 79 -100 c94 -118 127 -150 165 -159 15 -3 27 -13 27 -21 0
-12 -21 -15 -119 -15 l-118 0 -38 58 c-70 105 -156 212 -170 212 -12 0 -15
-18 -15 -87 0 -120 4 -131 51 -143 23 -6 39 -17 39 -25 0 -13 -27 -15 -165
-15 -138 0 -165 2 -165 15 0 8 14 17 35 21 19 3 39 12 45 19 7 8 9 95 8 251
l-3 239 -42 13 c-24 8 -43 20 -43 28 0 21 396 20 467 -1z m855 -52 c-1 -35 -1
-67 -1 -73 -2 -21 -31 -9 -45 19 -9 16 -29 40 -46 55 -29 24 -39 26 -116 26
l-84 0 0 -115 0 -115 49 0 c58 0 94 24 113 75 22 63 33 34 36 -98 2 -103 0
-127 -11 -127 -8 0 -22 20 -31 44 -19 50 -46 66 -111 66 l-45 0 0 -109 c0
-137 3 -141 105 -141 101 0 119 9 167 85 40 65 64 79 62 37 0 -12 -1 -53 -2
-92 l-2 -70 -285 0 c-237 0 -285 2 -285 14 0 15 21 26 50 26 11 0 24 9 30 19
13 26 14 446 0 471 -5 10 -26 24 -45 30 -19 6 -35 18 -35 26 0 12 40 14 266
12 l266 -3 0 -62z m508 53 c0 -8 -19 -18 -45 -25 l-45 -11 0 -245 c0 -282 -7
-265 104 -265 92 0 109 9 153 84 51 88 63 86 63 -13 0 -44 -3 -86 -6 -95 -5
-14 -40 -16 -280 -16 -234 0 -274 2 -274 15 0 8 16 19 40 25 l39 11 3 218 c4
269 3 273 -42 287 -19 6 -36 19 -38 28 -3 14 15 16 162 16 135 0 166 -3 166
-14z m1513 -20 c115 -56 169 -139 171 -261 0 -38 -6 -88 -13 -109 -20 -59 -91
-129 -164 -162 -61 -29 -65 -29 -274 -32 -187 -3 -213 -2 -213 12 0 9 13 18
35 22 20 3 40 15 45 25 11 19 14 429 4 466 -4 16 -18 26 -45 33 -24 7 -39 17
-39 26 0 14 26 15 218 12 215 -3 218 -3 275 -32z"/>
<path d="M3154 2046 c-64 -28 -104 -129 -104 -266 0 -194 76 -301 191 -270 72
20 108 91 116 231 11 169 -33 286 -114 308 -47 13 -51 13 -89 -3z"/>
<path d="M980 1916 l0 -126 30 0 c44 0 96 24 116 55 11 16 17 46 17 81 0 76
-28 105 -107 112 l-56 4 0 -126z"/>
<path d="M3830 1796 c0 -242 0 -245 22 -260 12 -9 40 -16 61 -16 116 0 168 81
169 260 0 169 -70 260 -202 260 l-50 0 0 -244z"/>
</g>
</svg>
